<?xml version="1.0" encoding="UTF-8"?>
<!DOCTYPE svg PUBLIC "-//W3C//DTD SVG 1.1//EN" "http://www.w3.org/Graphics/SVG/1.1/DTD/svg11.dtd">
<!-- Creator: CorelDRAW -->
<svg xmlns="http://www.w3.org/2000/svg" xml:space="preserve" width="6.82666in" height="6.82666in" style="shape-rendering:geometricPrecision; text-rendering:geometricPrecision; image-rendering:optimizeQuality; fill-rule:evenodd; clip-rule:evenodd"
viewBox="0 0 6.82666 6.82666"
 xmlns:xlink="http://www.w3.org/1999/xlink"
 version="1.1">
 <defs>
  <style type="text/css">
   <![CDATA[
    .fil5 {fill:none}
    .fil3 {fill:#439ED7}
    .fil1 {fill:#8B5E3C}
    .fil2 {fill:#A97C50}
    .fil0 {fill:#F3AD21}
    .fil4 {fill:#FBC25C}
   ]]>
  </style>
 </defs>
 <g id="Layer_x0020_1">
  <metadata id="CorelCorpID_0Corel-Layer"/>
  <g id="_581584480">
   <g id="Guides">
   </g>
   <g id="Layer_2">
   </g>
   <g id="Layer_3">
   </g>
   <g id="Layer_4">
   </g>
   <g id="Layer_5">
   </g>
   <g id="Layer_6">
   </g>
   <g id="Layer_7">
   </g>
   <g id="Layer_8">
   </g>
   <g id="Layer_9">
   </g>
   <g id="Layer_10">
   </g>
   <g id="Layer_11">
   </g>
   <g id="Layer_12">
   </g>
   <g id="Layer_13">
   </g>
   <g id="Layer_14">
   </g>
   <g id="Layer_15">
   </g>
   <g id="Layer_16">
   </g>
   <g id="Layer_17">
   </g>
   <g id="Layer_18">
   </g>
   <g id="Layer_19">
   </g>
   <g id="Layer_20">
   </g>
   <g id="Layer_21">
   </g>
   <g id="Layer_22">
   </g>
   <g id="Layer_23">
   </g>
   <g id="Layer_24">
   </g>
   <g id="Layer_25">
   </g>
   <g id="Layer_26">
    <g>
     <g>
      <polygon id="_584084320" class="fil0" points="3.06181,4.59113 3.06181,3.49186 3.06181,3.34413 3.41298,3.15213 3.75888,3.33933 3.75888,3.49186 3.75888,4.59113 "/>
     </g>
    </g>
    <g>
     <g>
      <rect id="_584083984" class="fil1" x="1.99498" y="5.2488" width="2.83073" height="0.564531"/>
     </g>
    </g>
    <g>
     <g>
      <rect id="_584083912" class="fil2" x="2.51678" y="4.59113" width="1.78713" height="0.657665"/>
     </g>
    </g>
    <g>
     <g>
      <polygon id="_584072944" class="fil3" points="3.41035,1.01333 3.86014,1.92457 4.86598,2.0707 4.13818,2.78 4.30998,3.78156 3.41035,3.3087 2.51068,3.78156 2.68252,2.78 1.95468,2.0707 2.96052,1.92457 "/>
     </g>
    </g>
    <g>
     <g>
      <polygon id="_584072344" class="fil0" points="3.41035,1.69004 3.66201,2.1999 4.22478,2.28163 3.81754,2.6785 3.91368,3.23887 3.41035,2.9743 2.90698,3.23887 3.00311,2.6785 2.59588,2.28163 3.15865,2.1999 "/>
     </g>
    </g>
    <g>
     <g>
      <polygon id="_584068336" class="fil0" points="4.38418,2.54027 5.20244,3.49186 4.30391,4.59113 4.30391,5.17056 5.68378,3.48246 4.65907,2.2908 "/>
     </g>
    </g>
    <g>
     <g>
      <polygon id="_584066368" class="fil0" points="2.51678,5.17316 1.14288,3.48246 2.16961,2.2879 2.43918,2.54287 1.62352,3.49186 2.51678,4.59113 "/>
     </g>
    </g>
    <g>
     <g>
      <polygon id="_581612320" class="fil4" points="3.41035,1.94354 3.57964,2.2865 3.95818,2.3415 3.68424,2.60844 3.74891,2.98537 3.41035,2.8074 3.07175,2.98537 3.13641,2.60844 2.86248,2.3415 3.24105,2.2865 "/>
     </g>
    </g>
   </g>
  </g>
 </g>
 <rect class="fil5" width="6.82666" height="6.82666"/>
</svg>
