<svg xmlns="http://www.w3.org/2000/svg" viewBox="0 0 48 48"><defs><style>.cls-4{fill:#f26674}</style></defs><g id="Question_Place_holder" data-name="Question Place holder"><path d="M24 47c-14.81 0-19.29-7.12-6.37-9.45h12.74C43.57 40 38.54 47 24 47z" style="fill:#374f68"/><path d="M37.88 42.64c-7.91 4.55-27.77 2-25.76-3.28a17.68 17.68 0 0 1 5.51-1.81h12.74c3.17.58 8.56 2.33 7.51 5.09z" style="fill:#425b72"/><path d="M41 18c0 10.26-8.58 19.45-17 24 0 0-17-9-17-24a17 17 0 0 1 34 0z" style="fill:#db5669"/><path class="cls-4" d="M41 18c0 12.79-12.36 21.22-16 23.42C21.36 39.22 9 30.79 9 18A17 17 0 0 1 25 1a17 17 0 0 1 16 17z"/><path d="M35 18a11 11 0 0 1-11 11C13.56 29 9 15.66 17.29 9.29A11 11 0 0 1 35 18z" style="fill:#dad7e5"/><path d="M35 18a10.88 10.88 0 0 1-2.29 6.71A10.88 10.88 0 0 1 26 27a11 11 0 0 1-8.71-17.71A11 11 0 0 1 35 18z" style="fill:#edebf2"/><path class="cls-4" d="M27.94 14.28a4 4 0 0 0-6.51-2.34C20 13.11 19.26 16 21 16a1 1 0 0 0 1-1 2 2 0 1 1 2.76 1.85C22.84 17.65 23 19.47 23 21a1 1 0 0 0 2 0c0-1.42-.11-2 .53-2.3a4 4 0 0 0 2.41-4.42zM24.92 23.62a1 1 0 1 0-1.47 1.21 1 1 0 0 0 1.47-1.21z"/></g></svg>